<?xml version="1.0" encoding="UTF-8" standalone="no"?>
<svg
   xmlns:dc="http://purl.org/dc/elements/1.1/"
   xmlns:cc="http://creativecommons.org/ns#"
   xmlns:rdf="http://www.w3.org/1999/02/22-rdf-syntax-ns#"
   xmlns:svg="http://www.w3.org/2000/svg"
   xmlns="http://www.w3.org/2000/svg"
   xmlns:sodipodi="http://sodipodi.sourceforge.net/DTD/sodipodi-0.dtd"
   xmlns:inkscape="http://www.inkscape.org/namespaces/inkscape"
   version="1.1"
   id="svg2"
   xml:space="preserve"
   width="768"
   height="576"
   viewBox="0 0 768 576"
   sodipodi:docname="SIF.eps"><metadata
     id="metadata8"><rdf:RDF><cc:Work
         rdf:about=""><dc:format>image/svg+xml</dc:format><dc:type
           rdf:resource="http://purl.org/dc/dcmitype/StillImage" /></cc:Work></rdf:RDF></metadata><defs
     id="defs6"><clipPath
       clipPathUnits="userSpaceOnUse"
       id="clipPath24"><path
         d="M 720,540 H 5184 V 3802 H 720 Z"
         id="path22" /></clipPath><clipPath
       clipPathUnits="userSpaceOnUse"
       id="clipPath50"><path
         d="M 720,540 H 5184 V 3802 H 720 Z"
         id="path48" /></clipPath><clipPath
       clipPathUnits="userSpaceOnUse"
       id="clipPath70"><path
         d="M 720,540 H 5184 V 3802 H 720 Z"
         id="path68" /></clipPath><clipPath
       clipPathUnits="userSpaceOnUse"
       id="clipPath90"><path
         d="M 720,540 H 5184 V 3802 H 720 Z"
         id="path88" /></clipPath><clipPath
       clipPathUnits="userSpaceOnUse"
       id="clipPath110"><path
         d="M 720,540 H 5184 V 3802 H 720 Z"
         id="path108" /></clipPath><clipPath
       clipPathUnits="userSpaceOnUse"
       id="clipPath130"><path
         d="M 720,540 H 5184 V 3802 H 720 Z"
         id="path128" /></clipPath><clipPath
       clipPathUnits="userSpaceOnUse"
       id="clipPath150"><path
         d="M 720,540 H 5184 V 3802 H 720 Z"
         id="path148" /></clipPath><clipPath
       clipPathUnits="userSpaceOnUse"
       id="clipPath170"><path
         d="M 720,540 H 5184 V 3802 H 720 Z"
         id="path168" /></clipPath><clipPath
       clipPathUnits="userSpaceOnUse"
       id="clipPath190"><path
         d="M 720,540 H 5184 V 3802 H 720 Z"
         id="path188" /></clipPath><clipPath
       clipPathUnits="userSpaceOnUse"
       id="clipPath210"><path
         d="M 720,540 H 5184 V 3802 H 720 Z"
         id="path208" /></clipPath><clipPath
       clipPathUnits="userSpaceOnUse"
       id="clipPath230"><path
         d="M 720,540 H 5184 V 3802 H 720 Z"
         id="path228" /></clipPath><clipPath
       clipPathUnits="userSpaceOnUse"
       id="clipPath250"><path
         d="M 720,540 H 5184 V 3802 H 720 Z"
         id="path248" /></clipPath><clipPath
       clipPathUnits="userSpaceOnUse"
       id="clipPath270"><path
         d="M 720,540 H 5184 V 3802 H 720 Z"
         id="path268" /></clipPath><clipPath
       clipPathUnits="userSpaceOnUse"
       id="clipPath290"><path
         d="M 720,540 H 5184 V 3802 H 720 Z"
         id="path288" /></clipPath><clipPath
       clipPathUnits="userSpaceOnUse"
       id="clipPath310"><path
         d="M 720,540 H 5184 V 3802 H 720 Z"
         id="path308" /></clipPath><clipPath
       clipPathUnits="userSpaceOnUse"
       id="clipPath366"><path
         d="M 720,540 H 5184 V 3802 H 720 Z"
         id="path364" /></clipPath></defs><sodipodi:namedview
     pagecolor="#ffffff"
     bordercolor="#666666"
     borderopacity="1"
     objecttolerance="10"
     gridtolerance="10"
     guidetolerance="10"
     inkscape:pageopacity="0"
     inkscape:pageshadow="2"
     inkscape:window-width="640"
     inkscape:window-height="480"
     id="namedview4" /><g
     id="g10"
     inkscape:groupmode="layer"
     inkscape:label="ink_ext_XXXXXX"
     transform="matrix(1.3333333,0,0,-1.3333333,0,576)"><g
       id="g12"
       transform="scale(0.1)"><path
         d="M 0,0 H 5760 V 4320 H 0 Z"
         style="fill:#ffffff;fill-opacity:1;fill-rule:nonzero;stroke:none"
         id="path14" /><path
         d="M 720,540 H 5184 V 3801.6 H 720 Z"
         style="fill:#ffffff;fill-opacity:1;fill-rule:nonzero;stroke:none"
         id="path16" /><g
         id="g18"><g
           id="g20"
           clip-path="url(#clipPath24)"><path
             d="M 2680.57,540 V 3801.6"
             style="fill:none;stroke:#0000ff;stroke-width:10;stroke-linecap:butt;stroke-linejoin:round;stroke-miterlimit:10;stroke-dasharray:37, 16;stroke-dashoffset:0;stroke-opacity:1"
             id="path26" /><path
             d="M 3322.91,540 V 3801.6"
             style="fill:none;stroke:#0000ff;stroke-width:10;stroke-linecap:butt;stroke-linejoin:round;stroke-miterlimit:10;stroke-dasharray:37, 16;stroke-dashoffset:0;stroke-opacity:1"
             id="path28" /><path
             d="m 1331.6,688.254 110.49,1.117 57.3,3 41.77,4.195 29.75,5.172 26.99,6.965 28.73,9.777 36.96,15.106 45.29,20.867 31.24,16.684 24.63,15.644 22.29,16.801 22.78,20.035 27.68,27.512 71.36,75.582 55.85,60.945 32.11,38.304 28.6,37.68 39.74,56.58 135.88,198.4 27.83,46.69 32.62,59.49 69.37,127.34 132.83,238.63 29.8,60.91 53.8,110.87 27.26,49.74 43.71,79.2 24.61,50.35 78.72,170.38 30.41,69.51 69.34,161.92 25.7,51.6 30.94,57.03 24.73,41.36 19.13,27.82 18.05,22.38 22.45,23.99 29.75,32.11 16.81,21.77 16.88,25.65 20.95,36.23 38.01,66.2 15.04,21.25 13.06,14.74 12.4,10.73 12.72,8.08 14.3,6.39 18.27,5.62 22.56,4.61 17.11,1.41 13.13,-1.09 11.42,-3.15 10.77,-5.3 10.75,-7.82 11.18,-10.97 12.09,-15.09 13.45,-20.51 15.3,-27.55 17.49,-36.26 19.66,-46.05 22.35,-58.22 28.23,-80.25 31.97,-97.32 21.64,-72.68 18.03,-68.46 17.73,-76.36 19.98,-96.38 30.7,-160.85 40.23,-207.86 32.38,-154.73 36.71,-164.59 31.9,-133.31 29.14,-112.35 29.77,-105.96 29.16,-95.82 25.93,-77.83 23.39,-63.38 21.88,-53.031 20.64,-44.347 19.49,-36.758 18.83,-30.871 18.88,-26.731 19.69,-24.039 20.68,-21.773 20.81,-18.739 20.05,-15.125 19.55,-11.992 19.9,-9.613 21.66,-7.945 26.29,-7.168 42.01,-8.817 49.99,-8.539 33.82,-3.472 43.2,-1.934 124.72,-2.664 148.3,-0.668 v 0"
             style="fill:none;stroke:#ff0000;stroke-width:20;stroke-linecap:square;stroke-linejoin:round;stroke-miterlimit:10;stroke-dasharray:none;stroke-opacity:1"
             id="path30" /><path
             d="M 720,540 V 3801.6"
             style="fill:none;stroke:#b0b0b0;stroke-width:8;stroke-linecap:square;stroke-linejoin:round;stroke-miterlimit:10;stroke-dasharray:none;stroke-opacity:1"
             id="path32" /></g></g><path
         d="M 720,540 V 505"
         style="fill:#000000;fill-opacity:1;fill-rule:nonzero;stroke:none"
         id="path34" /><path
         d="M 720,540 V 505"
         style="fill:none;stroke:#000000;stroke-width:8;stroke-linecap:butt;stroke-linejoin:round;stroke-miterlimit:10;stroke-dasharray:none;stroke-opacity:1"
         id="path36" /><g
         id="g38"
         transform="scale(10)"><text
           transform="matrix(1,0,0,-1,56.6797,39.4063)"
           style="font-variant:normal;font-weight:normal;font-size:10px;font-family:Arial;-inkscape-font-specification:Arial;writing-mode:lr-tb;fill:#000000;fill-opacity:1;fill-rule:nonzero;stroke:none"
           id="text42"><tspan
             x="0 8.3789072 14.74141 17.919928 24.282429"
             y="0"
             sodipodi:role="line"
             id="tspan40">−1.00</tspan></text></g><g
         id="g44"><g
           id="g46"
           clip-path="url(#clipPath50)"><path
             d="M 1278,540 V 3801.6"
             style="fill:none;stroke:#b0b0b0;stroke-width:8;stroke-linecap:square;stroke-linejoin:round;stroke-miterlimit:10;stroke-dasharray:none;stroke-opacity:1"
             id="path52" /></g></g><path
         d="M 1278,540 V 505"
         style="fill:#000000;fill-opacity:1;fill-rule:nonzero;stroke:none"
         id="path54" /><path
         d="M 1278,540 V 505"
         style="fill:none;stroke:#000000;stroke-width:8;stroke-linecap:butt;stroke-linejoin:round;stroke-miterlimit:10;stroke-dasharray:none;stroke-opacity:1"
         id="path56" /><g
         id="g58"
         transform="scale(10)"><text
           transform="matrix(1,0,0,-1,112.48,39.4063)"
           style="font-variant:normal;font-weight:normal;font-size:10px;font-family:Arial;-inkscape-font-specification:Arial;writing-mode:lr-tb;fill:#000000;fill-opacity:1;fill-rule:nonzero;stroke:none"
           id="text62"><tspan
             x="0 8.3789015 14.741404 17.919914 24.282417"
             y="0"
             sodipodi:role="line"
             id="tspan60">−0.75</tspan></text></g><g
         id="g64"><g
           id="g66"
           clip-path="url(#clipPath70)"><path
             d="M 1836,540 V 3801.6"
             style="fill:none;stroke:#b0b0b0;stroke-width:8;stroke-linecap:square;stroke-linejoin:round;stroke-miterlimit:10;stroke-dasharray:none;stroke-opacity:1"
             id="path72" /></g></g><path
         d="M 1836,540 V 505"
         style="fill:#000000;fill-opacity:1;fill-rule:nonzero;stroke:none"
         id="path74" /><path
         d="M 1836,540 V 505"
         style="fill:none;stroke:#000000;stroke-width:8;stroke-linecap:butt;stroke-linejoin:round;stroke-miterlimit:10;stroke-dasharray:none;stroke-opacity:1"
         id="path76" /><g
         id="g78"
         transform="scale(10)"><text
           transform="matrix(1,0,0,-1,168.28,39.4063)"
           style="font-variant:normal;font-weight:normal;font-size:10px;font-family:Arial;-inkscape-font-specification:Arial;writing-mode:lr-tb;fill:#000000;fill-opacity:1;fill-rule:nonzero;stroke:none"
           id="text82"><tspan
             x="0 8.3789015 14.741404 17.919914 24.282417"
             y="0"
             sodipodi:role="line"
             id="tspan80">−0.50</tspan></text></g><g
         id="g84"><g
           id="g86"
           clip-path="url(#clipPath90)"><path
             d="M 2394,540 V 3801.6"
             style="fill:none;stroke:#b0b0b0;stroke-width:8;stroke-linecap:square;stroke-linejoin:round;stroke-miterlimit:10;stroke-dasharray:none;stroke-opacity:1"
             id="path92" /></g></g><path
         d="M 2394,540 V 505"
         style="fill:#000000;fill-opacity:1;fill-rule:nonzero;stroke:none"
         id="path94" /><path
         d="M 2394,540 V 505"
         style="fill:none;stroke:#000000;stroke-width:8;stroke-linecap:butt;stroke-linejoin:round;stroke-miterlimit:10;stroke-dasharray:none;stroke-opacity:1"
         id="path96" /><g
         id="g98"
         transform="scale(10)"><text
           transform="matrix(1,0,0,-1,224.08,39.4063)"
           style="font-variant:normal;font-weight:normal;font-size:10px;font-family:Arial;-inkscape-font-specification:Arial;writing-mode:lr-tb;fill:#000000;fill-opacity:1;fill-rule:nonzero;stroke:none"
           id="text102"><tspan
             x="0 8.3789015 14.741391 17.919903 24.282393"
             y="0"
             sodipodi:role="line"
             id="tspan100">−0.25</tspan></text></g><g
         id="g104"><g
           id="g106"
           clip-path="url(#clipPath110)"><path
             d="M 2952,540 V 3801.6"
             style="fill:none;stroke:#b0b0b0;stroke-width:8;stroke-linecap:square;stroke-linejoin:round;stroke-miterlimit:10;stroke-dasharray:none;stroke-opacity:1"
             id="path112" /></g></g><path
         d="M 2952,540 V 505"
         style="fill:#000000;fill-opacity:1;fill-rule:nonzero;stroke:none"
         id="path114" /><path
         d="M 2952,540 V 505"
         style="fill:none;stroke:#000000;stroke-width:8;stroke-linecap:butt;stroke-linejoin:round;stroke-miterlimit:10;stroke-dasharray:none;stroke-opacity:1"
         id="path116" /><g
         id="g118"
         transform="scale(10)"><text
           transform="matrix(1,0,0,-1,284.067,39.4063)"
           style="font-variant:normal;font-weight:normal;font-size:10px;font-family:Arial;-inkscape-font-specification:Arial;writing-mode:lr-tb;fill:#000000;fill-opacity:1;fill-rule:nonzero;stroke:none"
           id="text122"><tspan
             x="0 6.3624902 9.5410013 15.903491"
             y="0"
             sodipodi:role="line"
             id="tspan120">0.00</tspan></text></g><g
         id="g124"><g
           id="g126"
           clip-path="url(#clipPath130)"><path
             d="M 3510,540 V 3801.6"
             style="fill:none;stroke:#b0b0b0;stroke-width:8;stroke-linecap:square;stroke-linejoin:round;stroke-miterlimit:10;stroke-dasharray:none;stroke-opacity:1"
             id="path132" /></g></g><path
         d="M 3510,540 V 505"
         style="fill:#000000;fill-opacity:1;fill-rule:nonzero;stroke:none"
         id="path134" /><path
         d="M 3510,540 V 505"
         style="fill:none;stroke:#000000;stroke-width:8;stroke-linecap:butt;stroke-linejoin:round;stroke-miterlimit:10;stroke-dasharray:none;stroke-opacity:1"
         id="path136" /><g
         id="g138"
         transform="scale(10)"><text
           transform="matrix(1,0,0,-1,339.867,39.4063)"
           style="font-variant:normal;font-weight:normal;font-size:10px;font-family:Arial;-inkscape-font-specification:Arial;writing-mode:lr-tb;fill:#000000;fill-opacity:1;fill-rule:nonzero;stroke:none"
           id="text142"><tspan
             x="0 6.3624902 9.5410013 15.903491"
             y="0"
             sodipodi:role="line"
             id="tspan140">0.25</tspan></text></g><g
         id="g144"><g
           id="g146"
           clip-path="url(#clipPath150)"><path
             d="M 4068,540 V 3801.6"
             style="fill:none;stroke:#b0b0b0;stroke-width:8;stroke-linecap:square;stroke-linejoin:round;stroke-miterlimit:10;stroke-dasharray:none;stroke-opacity:1"
             id="path152" /></g></g><path
         d="M 4068,540 V 505"
         style="fill:#000000;fill-opacity:1;fill-rule:nonzero;stroke:none"
         id="path154" /><path
         d="M 4068,540 V 505"
         style="fill:none;stroke:#000000;stroke-width:8;stroke-linecap:butt;stroke-linejoin:round;stroke-miterlimit:10;stroke-dasharray:none;stroke-opacity:1"
         id="path156" /><g
         id="g158"
         transform="scale(10)"><text
           transform="matrix(1,0,0,-1,395.667,39.4063)"
           style="font-variant:normal;font-weight:normal;font-size:10px;font-family:Arial;-inkscape-font-specification:Arial;writing-mode:lr-tb;fill:#000000;fill-opacity:1;fill-rule:nonzero;stroke:none"
           id="text162"><tspan
             x="0 6.3624902 9.5410013 15.903491"
             y="0"
             sodipodi:role="line"
             id="tspan160">0.50</tspan></text></g><g
         id="g164"><g
           id="g166"
           clip-path="url(#clipPath170)"><path
             d="M 4626,540 V 3801.6"
             style="fill:none;stroke:#b0b0b0;stroke-width:8;stroke-linecap:square;stroke-linejoin:round;stroke-miterlimit:10;stroke-dasharray:none;stroke-opacity:1"
             id="path172" /></g></g><path
         d="M 4626,540 V 505"
         style="fill:#000000;fill-opacity:1;fill-rule:nonzero;stroke:none"
         id="path174" /><path
         d="M 4626,540 V 505"
         style="fill:none;stroke:#000000;stroke-width:8;stroke-linecap:butt;stroke-linejoin:round;stroke-miterlimit:10;stroke-dasharray:none;stroke-opacity:1"
         id="path176" /><g
         id="g178"
         transform="scale(10)"><text
           transform="matrix(1,0,0,-1,451.467,39.4063)"
           style="font-variant:normal;font-weight:normal;font-size:10px;font-family:Arial;-inkscape-font-specification:Arial;writing-mode:lr-tb;fill:#000000;fill-opacity:1;fill-rule:nonzero;stroke:none"
           id="text182"><tspan
             x="0 6.3624902 9.5410252 15.903516"
             y="0"
             sodipodi:role="line"
             id="tspan180">0.75</tspan></text></g><g
         id="g184"><g
           id="g186"
           clip-path="url(#clipPath190)"><path
             d="M 5184,540 V 3801.6"
             style="fill:none;stroke:#b0b0b0;stroke-width:8;stroke-linecap:square;stroke-linejoin:round;stroke-miterlimit:10;stroke-dasharray:none;stroke-opacity:1"
             id="path192" /></g></g><path
         d="M 5184,540 V 505"
         style="fill:#000000;fill-opacity:1;fill-rule:nonzero;stroke:none"
         id="path194" /><path
         d="M 5184,540 V 505"
         style="fill:none;stroke:#000000;stroke-width:8;stroke-linecap:butt;stroke-linejoin:round;stroke-miterlimit:10;stroke-dasharray:none;stroke-opacity:1"
         id="path196" /><g
         id="g198"
         transform="scale(10)"><text
           transform="matrix(1,0,0,-1,507.267,39.4063)"
           style="font-variant:normal;font-weight:normal;font-size:10px;font-family:Arial;-inkscape-font-specification:Arial;writing-mode:lr-tb;fill:#000000;fill-opacity:1;fill-rule:nonzero;stroke:none"
           id="text202"><tspan
             x="0 6.3624902 9.5410252 15.903516"
             y="0"
             sodipodi:role="line"
             id="tspan200">1.00</tspan></text></g><g
         id="g204"><g
           id="g206"
           clip-path="url(#clipPath210)"><path
             d="M 720,688.242 H 5184"
             style="fill:none;stroke:#b0b0b0;stroke-width:8;stroke-linecap:square;stroke-linejoin:round;stroke-miterlimit:10;stroke-dasharray:none;stroke-opacity:1"
             id="path212" /></g></g><path
         d="M 720,688.242 H 685"
         style="fill:#000000;fill-opacity:1;fill-rule:nonzero;stroke:none"
         id="path214" /><path
         d="M 720,688.242 H 685"
         style="fill:none;stroke:#000000;stroke-width:8;stroke-linecap:butt;stroke-linejoin:round;stroke-miterlimit:10;stroke-dasharray:none;stroke-opacity:1"
         id="path216" /><g
         id="g218"
         transform="scale(10)"><text
           transform="matrix(1,0,0,-1,49.0938,65.0273)"
           style="font-variant:normal;font-weight:normal;font-size:10px;font-family:Arial;-inkscape-font-specification:Arial;writing-mode:lr-tb;fill:#000000;fill-opacity:1;fill-rule:nonzero;stroke:none"
           id="text222"><tspan
             x="0 6.3625026 9.5410194"
             y="0"
             sodipodi:role="line"
             id="tspan220">0.0</tspan></text></g><g
         id="g224"><g
           id="g226"
           clip-path="url(#clipPath230)"><path
             d="M 720,1286.88 H 5184"
             style="fill:none;stroke:#b0b0b0;stroke-width:8;stroke-linecap:square;stroke-linejoin:round;stroke-miterlimit:10;stroke-dasharray:none;stroke-opacity:1"
             id="path232" /></g></g><path
         d="M 720,1286.88 H 685"
         style="fill:#000000;fill-opacity:1;fill-rule:nonzero;stroke:none"
         id="path234" /><path
         d="M 720,1286.88 H 685"
         style="fill:none;stroke:#000000;stroke-width:8;stroke-linecap:butt;stroke-linejoin:round;stroke-miterlimit:10;stroke-dasharray:none;stroke-opacity:1"
         id="path236" /><g
         id="g238"
         transform="scale(10)"><text
           transform="matrix(1,0,0,-1,49.0938,124.891)"
           style="font-variant:normal;font-weight:normal;font-size:10px;font-family:Arial;-inkscape-font-specification:Arial;writing-mode:lr-tb;fill:#000000;fill-opacity:1;fill-rule:nonzero;stroke:none"
           id="text242"><tspan
             x="0 6.3625026 9.5410194"
             y="0"
             sodipodi:role="line"
             id="tspan240">0.5</tspan></text></g><g
         id="g244"><g
           id="g246"
           clip-path="url(#clipPath250)"><path
             d="M 720,1885.52 H 5184"
             style="fill:none;stroke:#b0b0b0;stroke-width:8;stroke-linecap:square;stroke-linejoin:round;stroke-miterlimit:10;stroke-dasharray:none;stroke-opacity:1"
             id="path252" /></g></g><path
         d="M 720,1885.52 H 685"
         style="fill:#000000;fill-opacity:1;fill-rule:nonzero;stroke:none"
         id="path254" /><path
         d="M 720,1885.52 H 685"
         style="fill:none;stroke:#000000;stroke-width:8;stroke-linecap:butt;stroke-linejoin:round;stroke-miterlimit:10;stroke-dasharray:none;stroke-opacity:1"
         id="path256" /><g
         id="g258"
         transform="scale(10)"><text
           transform="matrix(1,0,0,-1,49.0938,184.755)"
           style="font-variant:normal;font-weight:normal;font-size:10px;font-family:Arial;-inkscape-font-specification:Arial;writing-mode:lr-tb;fill:#000000;fill-opacity:1;fill-rule:nonzero;stroke:none"
           id="text262"><tspan
             x="0 6.3625026 9.5410194"
             y="0"
             sodipodi:role="line"
             id="tspan260">1.0</tspan></text></g><g
         id="g264"><g
           id="g266"
           clip-path="url(#clipPath270)"><path
             d="M 720,2484.15 H 5184"
             style="fill:none;stroke:#b0b0b0;stroke-width:8;stroke-linecap:square;stroke-linejoin:round;stroke-miterlimit:10;stroke-dasharray:none;stroke-opacity:1"
             id="path272" /></g></g><path
         d="M 720,2484.15 H 685"
         style="fill:#000000;fill-opacity:1;fill-rule:nonzero;stroke:none"
         id="path274" /><path
         d="M 720,2484.15 H 685"
         style="fill:none;stroke:#000000;stroke-width:8;stroke-linecap:butt;stroke-linejoin:round;stroke-miterlimit:10;stroke-dasharray:none;stroke-opacity:1"
         id="path276" /><g
         id="g278"
         transform="scale(10)"><text
           transform="matrix(1,0,0,-1,49.0938,244.618)"
           style="font-variant:normal;font-weight:normal;font-size:10px;font-family:Arial;-inkscape-font-specification:Arial;writing-mode:lr-tb;fill:#000000;fill-opacity:1;fill-rule:nonzero;stroke:none"
           id="text282"><tspan
             x="0 6.3625026 9.5410194"
             y="0"
             sodipodi:role="line"
             id="tspan280">1.5</tspan></text></g><g
         id="g284"><g
           id="g286"
           clip-path="url(#clipPath290)"><path
             d="M 720,3082.79 H 5184"
             style="fill:none;stroke:#b0b0b0;stroke-width:8;stroke-linecap:square;stroke-linejoin:round;stroke-miterlimit:10;stroke-dasharray:none;stroke-opacity:1"
             id="path292" /></g></g><path
         d="M 720,3082.79 H 685"
         style="fill:#000000;fill-opacity:1;fill-rule:nonzero;stroke:none"
         id="path294" /><path
         d="M 720,3082.79 H 685"
         style="fill:none;stroke:#000000;stroke-width:8;stroke-linecap:butt;stroke-linejoin:round;stroke-miterlimit:10;stroke-dasharray:none;stroke-opacity:1"
         id="path296" /><g
         id="g298"
         transform="scale(10)"><text
           transform="matrix(1,0,0,-1,49.0938,304.482)"
           style="font-variant:normal;font-weight:normal;font-size:10px;font-family:Arial;-inkscape-font-specification:Arial;writing-mode:lr-tb;fill:#000000;fill-opacity:1;fill-rule:nonzero;stroke:none"
           id="text302"><tspan
             x="0 6.3625026 9.5410194"
             y="0"
             sodipodi:role="line"
             id="tspan300">2.0</tspan></text></g><g
         id="g304"><g
           id="g306"
           clip-path="url(#clipPath310)"><path
             d="M 720,3681.42 H 5184"
             style="fill:none;stroke:#b0b0b0;stroke-width:8;stroke-linecap:square;stroke-linejoin:round;stroke-miterlimit:10;stroke-dasharray:none;stroke-opacity:1"
             id="path312" /></g></g><path
         d="M 720,3681.42 H 685"
         style="fill:#000000;fill-opacity:1;fill-rule:nonzero;stroke:none"
         id="path314" /><path
         d="M 720,3681.42 H 685"
         style="fill:none;stroke:#000000;stroke-width:8;stroke-linecap:butt;stroke-linejoin:round;stroke-miterlimit:10;stroke-dasharray:none;stroke-opacity:1"
         id="path316" /><g
         id="g318"
         transform="scale(10)"><text
           transform="matrix(1,0,0,-1,49.0938,364.345)"
           style="font-variant:normal;font-weight:normal;font-size:10px;font-family:Arial;-inkscape-font-specification:Arial;writing-mode:lr-tb;fill:#000000;fill-opacity:1;fill-rule:nonzero;stroke:none"
           id="text322"><tspan
             x="0 6.3625026 9.5410194"
             y="0"
             sodipodi:role="line"
             id="tspan320">2.5</tspan></text></g><path
         d="M 720,540 V 3801.6"
         style="fill:none;stroke:#000000;stroke-width:8;stroke-linecap:square;stroke-linejoin:miter;stroke-miterlimit:10;stroke-dasharray:none;stroke-opacity:1"
         id="path324" /><path
         d="M 5184,540 V 3801.6"
         style="fill:none;stroke:#000000;stroke-width:8;stroke-linecap:square;stroke-linejoin:miter;stroke-miterlimit:10;stroke-dasharray:none;stroke-opacity:1"
         id="path326" /><path
         d="M 720,540 H 5184"
         style="fill:none;stroke:#000000;stroke-width:8;stroke-linecap:square;stroke-linejoin:miter;stroke-miterlimit:10;stroke-dasharray:none;stroke-opacity:1"
         id="path328" /><path
         d="M 720,3801.6 H 5184"
         style="fill:none;stroke:#000000;stroke-width:8;stroke-linecap:square;stroke-linejoin:miter;stroke-miterlimit:10;stroke-dasharray:none;stroke-opacity:1"
         id="path330" /><path
         d="m 4409,3281.45 h 705 c 13.33,0 20,6.66 20,20 v 430.15 c 0,13.33 -6.67,20 -20,20 h -705 c -13.33,0 -20,-6.67 -20,-20 v -430.15 c 0,-13.34 6.67,-20 20,-20"
         style="fill:#ffffff;fill-opacity:1;fill-rule:nonzero;stroke:none"
         id="path332" /><path
         d="m 4409,3281.45 h 705 c 13.33,0 20,6.66 20,20 v 430.15 c 0,13.33 -6.67,20 -20,20 h -705 c -13.33,0 -20,-6.67 -20,-20 v -430.15 c 0,-13.34 6.67,-20 20,-20 z"
         style="fill:none;stroke:#cccccc;stroke-width:10;stroke-linecap:butt;stroke-linejoin:miter;stroke-miterlimit:10;stroke-dasharray:none;stroke-opacity:1"
         id="path334" /><path
         d="m 4429,3670.66 h 200"
         style="fill:none;stroke:#ff0000;stroke-width:20;stroke-linecap:square;stroke-linejoin:round;stroke-miterlimit:10;stroke-dasharray:none;stroke-opacity:1"
         id="path336" /><g
         id="g338"
         transform="scale(10)"><text
           transform="matrix(1,0,0,-1,470.9,363.566)"
           style="font-variant:normal;font-weight:normal;font-size:10px;font-family:Arial;-inkscape-font-specification:Arial;writing-mode:lr-tb;fill:#000000;fill-opacity:1;fill-rule:nonzero;stroke:none"
           id="text342"><tspan
             x="0 6.1085839 12.426924"
             y="0"
             sodipodi:role="line"
             id="tspan340">TED</tspan></text></g><path
         d="m 4429,3523.95 h 200"
         style="fill:none;stroke:#008000;stroke-width:20;stroke-linecap:butt;stroke-linejoin:round;stroke-miterlimit:10;stroke-dasharray:74, 32;stroke-dashoffset:0;stroke-opacity:1"
         id="path344" /><g
         id="g346"
         transform="scale(10)"><text
           transform="matrix(1,0,0,-1,470.9,348.895)"
           style="font-variant:normal;font-weight:normal;font-size:10px;font-family:Arial;-inkscape-font-specification:Arial;writing-mode:lr-tb;fill:#000000;fill-opacity:1;fill-rule:nonzero;stroke:none"
           id="text350"><tspan
             x="0 5.571465 11.699219"
             y="0"
             sodipodi:role="line"
             id="tspan348">Law</tspan></text></g><path
         d="m 4429,3377.23 h 200"
         style="fill:none;stroke:#ff00ff;stroke-width:20;stroke-linecap:butt;stroke-linejoin:round;stroke-miterlimit:10;stroke-dasharray:20, 33;stroke-dashoffset:0;stroke-opacity:1"
         id="path352" /><g
         id="g354"
         transform="scale(10)"><text
           transform="matrix(1,0,0,-1,470.9,334.223)"
           style="font-variant:normal;font-weight:normal;font-size:10px;font-family:Arial;-inkscape-font-specification:Arial;writing-mode:lr-tb;fill:#000000;fill-opacity:1;fill-rule:nonzero;stroke:none"
           id="text358"><tspan
             x="0 6.9824414 9.7609768 12.539121 22.280537 28.408291 32.329365"
             y="0"
             sodipodi:role="line"
             id="tspan356">Climate</tspan></text></g><g
         id="g360"><g
           id="g362"
           clip-path="url(#clipPath366)"><path
             d="m 1806.12,689.711 42.49,1.352 37.18,3.437 26.55,4.469 26.56,6.851 21.24,7.66 21.25,9.954 21.25,12.543 21.24,15.355 21.25,18.352 21.24,21.472 21.25,24.731 21.24,28.16 21.25,31.824 21.24,35.801 21.25,40.129 21.24,44.785 21.25,49.664 21.24,54.55 26.56,74.64 31.87,97.31 111.54,350.01 26.55,71.59 21.25,51.85 26.55,58.35 26.56,52.66 69.05,132.98 21.24,48.24 15.94,41.04 15.93,46.24 15.93,52.21 15.94,58.75 15.93,65.59 21.25,98.03 21.24,109.11 26.56,148.63 90.29,518.64 21.25,104.97 21.24,93.35 15.94,61.71 15.93,54.3 15.93,46.71 15.94,39 10.62,21.65 10.62,18.11 10.63,14.54 10.62,10.93 10.62,7.29 10.62,3.65 10.63,0.04 10.62,-3.51 10.62,-6.96 10.62,-10.25 10.63,-13.35 10.62,-16.21 15.93,-29.1 15.94,-33.93 21.24,-51.04 26.56,-70.23 31.87,-90.68 31.87,-97.8 26.55,-89.7 21.25,-79.26 21.24,-87.29 21.25,-95.86 26.55,-131.29 31.87,-170.88 106.23,-583.68 26.56,-129.96 26.55,-119.61 26.56,-109.17 26.56,-99.46 26.55,-90.98 26.56,-83.85 31.87,-92.82 31.86,-85.25 26.56,-65.14 26.56,-59.18 21.24,-42.55 21.25,-38.016 21.24,-33.398 21.25,-28.938 21.24,-24.836 21.25,-21.23 21.24,-18.172 21.25,-15.61 26.56,-16.468 26.55,-13.489 26.56,-10.687 26.56,-7.988 26.55,-5.508 31.87,-4.024 90.29,-8.914 26.56,-5.453 31.87,-9.101 37.18,-13.235 69.04,-25.027 31.87,-8.988 31.87,-6.625 31.87,-4.407 37.18,-2.902 47.8,-1.238 5.31,0.004 v 0"
             style="fill:none;stroke:#008000;stroke-width:20;stroke-linecap:butt;stroke-linejoin:round;stroke-miterlimit:10;stroke-dasharray:74, 32;stroke-dashoffset:0;stroke-opacity:1"
             id="path368" /><path
             d="m 1462.2,688.863 72.42,1.117 55.71,2.993 50.14,5.035 55.71,8.027 94.71,13.934 89.13,11.621 27.86,6.289 22.28,7.078 22.29,9.344 22.28,11.898 22.29,14.598 22.28,17.328 22.29,20 22.28,22.559 27.85,31.582 27.86,35.047 33.42,46.042 39,57.985 50.14,78.96 39,64.77 27.86,49.91 22.28,43.92 22.28,49.19 22.29,56.12 16.71,47.56 16.71,52.8 22.29,78.97 22.28,88.75 22.29,97.66 27.85,132.01 116.99,570.16 33.43,144.51 111.42,470.42 61.28,270.03 22.29,87.06 16.71,56.92 16.71,47.83 11.15,26.18 11.14,21.3 11.14,16.3 11.14,11.29 11.14,6.4 11.15,1.75 11.14,-2.56 11.14,-6.46 11.14,-9.88 11.14,-12.77 16.72,-23.45 22.28,-36.74 33.43,-60.91 39,-75.28 27.85,-58.69 22.29,-52.78 22.28,-60.09 22.28,-68.68 22.29,-77.55 22.28,-85.65 27.86,-116.06 44.57,-197.45 105.85,-472.05 50.14,-213.62 38.99,-156.81 33.43,-125.11 33.43,-115.44 33.42,-106.15 33.43,-98.17 33.43,-91.53 33.42,-85.56 33.43,-79.33 27.85,-60.68 27.86,-55.094 22.28,-39.707 22.29,-35.711 22.28,-31.742 22.29,-27.957 22.28,-24.457 22.28,-21.293 22.29,-18.492 22.28,-16.035 27.86,-17.024 27.85,-14.074 27.86,-11.469 27.85,-9.125 27.86,-7.031 33.43,-6.074 38.99,-4.477 44.57,-2.707 61.28,-1.281 11.14,-0.043 v 0"
             style="fill:none;stroke:#ff00ff;stroke-width:20;stroke-linecap:butt;stroke-linejoin:round;stroke-miterlimit:10;stroke-dasharray:20, 33;stroke-dashoffset:0;stroke-opacity:1"
             id="path370" /></g></g></g></g></svg>
